<svg xmlns="http://www.w3.org/2000/svg" width="307.564" height="112" viewBox="0 0 307.564 112"><g transform="translate(-32 -20)"><g transform="translate(32 20)"><path d="M84.615,43.19H80.769V31.048A3.95,3.95,0,0,0,76.923,27H3.846a4.053,4.053,0,0,0,0,8.1H73.077V83.667c0,11.159-8.627,20.238-19.231,20.238H26.923c-10.6,0-19.231-9.079-19.231-20.238V47.238A3.952,3.952,0,0,0,3.846,43.19,3.952,3.952,0,0,0,0,47.238V83.667C0,99.286,12.077,112,26.923,112H53.846c14.842,0,26.923-12.714,26.923-28.333V79.619h3.846C93.1,79.619,100,72.358,100,63.429V59.381C100,50.452,93.1,43.19,84.615,43.19Zm7.692,20.238a7.909,7.909,0,0,1-7.692,8.1H80.769V51.286h3.846a7.909,7.909,0,0,1,7.692,8.1Z"/><path d="M23,24a4,4,0,0,0,4-4V12a4,4,0,0,0-8,0v8A4,4,0,0,0,23,24Z"/><path d="M39,24a4,4,0,0,0,4-4V4a4,4,0,0,0-8,0V20A4,4,0,0,0,39,24Z"/><path d="M54,24a4,4,0,0,0,4-4V12a4,4,0,0,0-8,0v8A4,4,0,0,0,54,24Z"/><path d="M136.33,51V27.06h8.484v-5.8h-23.52v5.8h8.484V51Zm21.714.5a11.449,11.449,0,0,0,4.788-1.05,10.053,10.053,0,0,0,3.822-2.982h0l-4.41-3.234a7.058,7.058,0,0,1-1.869,1.785,4.732,4.732,0,0,1-2.625.693,4.634,4.634,0,0,1-3.108-1.071A4.986,4.986,0,0,1,153,42.768H167.62V40.794a13.628,13.628,0,0,0-.672-4.41A9.85,9.85,0,0,0,165.037,33a8.264,8.264,0,0,0-3.024-2.163,10.08,10.08,0,0,0-3.969-.756,12.865,12.865,0,0,0-4.431.756A10.665,10.665,0,0,0,150,33a10.151,10.151,0,0,0-2.415,3.381,11.466,11.466,0,0,0,0,8.82A10.151,10.151,0,0,0,150,48.585a10.665,10.665,0,0,0,3.612,2.163A12.865,12.865,0,0,0,158.044,51.5Zm3.276-13.02H153a4.01,4.01,0,0,1,.357-1.449,3.774,3.774,0,0,1,.882-1.218,4.632,4.632,0,0,1,1.365-.861,4.731,4.731,0,0,1,1.848-.336,3.734,3.734,0,0,1,2.814,1.134,3.647,3.647,0,0,1,1.05,2.73ZM177.7,51.5a9.6,9.6,0,0,0,3.675-.714,5.925,5.925,0,0,0,2.793-2.352h.084V51h5.8V40.626a21.637,21.637,0,0,0-.42-4.515,7.849,7.849,0,0,0-1.491-3.3,6.627,6.627,0,0,0-2.856-2.037,12.737,12.737,0,0,0-4.557-.693,14.71,14.71,0,0,0-4.872.819,11.561,11.561,0,0,0-4.116,2.457h0L175.1,36.8a7.744,7.744,0,0,1,2.289-1.785,6.166,6.166,0,0,1,2.835-.651,4.317,4.317,0,0,1,2.835.987,3.276,3.276,0,0,1,1.2,2.667q-1.3,0-2.835.042a28.281,28.281,0,0,0-3.066.252,18.549,18.549,0,0,0-2.961.651,8.76,8.76,0,0,0-2.541,1.239,5.825,5.825,0,0,0-1.764,2.016,6.259,6.259,0,0,0-.651,2.982,6.029,6.029,0,0,0,.588,2.73,5.78,5.78,0,0,0,1.6,1.974,6.942,6.942,0,0,0,2.331,1.2A9.475,9.475,0,0,0,177.7,51.5Zm1.764-4.284a4.041,4.041,0,0,1-2.016-.546,1.8,1.8,0,0,1-.966-1.68,2.032,2.032,0,0,1,.693-1.638,4.58,4.58,0,0,1,1.68-.882,9.045,9.045,0,0,1,2.058-.357q1.071-.063,1.785-.063h1.554V43.4a3.389,3.389,0,0,1-.4,1.68,3.451,3.451,0,0,1-1.071,1.176,5.324,5.324,0,0,1-1.533.714A6.322,6.322,0,0,1,179.464,47.22ZM200.3,51V40.836a14.3,14.3,0,0,1,.126-1.932,4.807,4.807,0,0,1,.525-1.659,3.006,3.006,0,0,1,1.155-1.176,3.889,3.889,0,0,1,1.974-.441,2.71,2.71,0,0,1,2.835,1.806,5.764,5.764,0,0,1,.378,1.743q.063.945.063,1.827h0V51h6.3V39.744a23.284,23.284,0,0,0-.294-3.822,8.239,8.239,0,0,0-1.113-3.066,5.587,5.587,0,0,0-2.289-2.037,8.677,8.677,0,0,0-3.864-.735,7.183,7.183,0,0,0-2.1.294,6.633,6.633,0,0,0-1.68.756,5.586,5.586,0,0,0-1.218,1.05,3.786,3.786,0,0,0-.714,1.176H200.3V19.248H194V51Zm28.392.5a12.865,12.865,0,0,0,4.431-.756,10.665,10.665,0,0,0,3.612-2.163,10.151,10.151,0,0,0,2.415-3.381,11.466,11.466,0,0,0,0-8.82A10.151,10.151,0,0,0,236.731,33a10.665,10.665,0,0,0-3.612-2.163,13.363,13.363,0,0,0-8.862,0A10.665,10.665,0,0,0,220.645,33a10.151,10.151,0,0,0-2.415,3.381,11.466,11.466,0,0,0,0,8.82,10.151,10.151,0,0,0,2.415,3.381,10.665,10.665,0,0,0,3.612,2.163A12.865,12.865,0,0,0,228.688,51.5Zm0-5.544a4.816,4.816,0,0,1-3.717-1.428,5.281,5.281,0,0,1-1.323-3.738,5.281,5.281,0,0,1,1.323-3.738,5.552,5.552,0,0,1,7.434,0,5.281,5.281,0,0,1,1.323,3.738,5.281,5.281,0,0,1-1.323,3.738A4.816,4.816,0,0,1,228.688,45.96Zm22.6,5.544a7.183,7.183,0,0,0,2.1-.294,7.444,7.444,0,0,0,1.722-.756,5.65,5.65,0,0,0,1.281-1.05,6.973,6.973,0,0,0,.861-1.176h.084V51h6.048V30.588h-6.3V40.752a14.3,14.3,0,0,1-.126,1.932,4.807,4.807,0,0,1-.525,1.659,3.006,3.006,0,0,1-1.155,1.176,3.889,3.889,0,0,1-1.974.441,2.71,2.71,0,0,1-2.835-1.806,5.764,5.764,0,0,1-.378-1.743q-.063-.945-.063-1.827h0v-10h-6.3V41.844A25.039,25.039,0,0,0,244,45.666a7.985,7.985,0,0,0,1.092,3.066,5.559,5.559,0,0,0,2.31,2.037A8.817,8.817,0,0,0,251.284,51.5Zm23.352,0a17.976,17.976,0,0,0,3.318-.315,9.483,9.483,0,0,0,3.024-1.092,6.6,6.6,0,0,0,2.205-2.058,5.717,5.717,0,0,0,.861-3.255,5.45,5.45,0,0,0-.777-3.087,5.734,5.734,0,0,0-1.974-1.827,9.627,9.627,0,0,0-2.562-.987q-1.365-.315-2.562-.588a10.277,10.277,0,0,1-1.974-.63,1.171,1.171,0,0,1-.777-1.113,1.336,1.336,0,0,1,.756-1.3,3.437,3.437,0,0,1,1.554-.378,4.461,4.461,0,0,1,3.654,1.722h0l3.864-3.822a7.556,7.556,0,0,0-3.486-2.1,14.777,14.777,0,0,0-4.074-.588,12.617,12.617,0,0,0-3.15.4,8.359,8.359,0,0,0-2.751,1.239,6.457,6.457,0,0,0-1.932,2.142,6.224,6.224,0,0,0-.735,3.108,5.45,5.45,0,0,0,.777,3.087,5.361,5.361,0,0,0,1.974,1.785,10.586,10.586,0,0,0,2.562.945q1.365.315,2.562.588a8.509,8.509,0,0,1,1.974.672,1.28,1.28,0,0,1,.777,1.2,1.162,1.162,0,0,1-.882,1.155,5.84,5.84,0,0,1-1.974.315,5.265,5.265,0,0,1-2.5-.567,6.34,6.34,0,0,1-1.953-1.659h0l-3.822,4.242a8.082,8.082,0,0,0,3.7,2.163A16.05,16.05,0,0,0,274.636,51.5Zm23.352,0a11.449,11.449,0,0,0,4.788-1.05,10.052,10.052,0,0,0,3.822-2.982h0l-4.41-3.234a7.058,7.058,0,0,1-1.869,1.785,4.732,4.732,0,0,1-2.625.693,4.634,4.634,0,0,1-3.108-1.071,4.986,4.986,0,0,1-1.638-2.877h14.616V40.794a13.628,13.628,0,0,0-.672-4.41A9.85,9.85,0,0,0,304.981,33a8.264,8.264,0,0,0-3.024-2.163,10.08,10.08,0,0,0-3.969-.756,12.865,12.865,0,0,0-4.431.756A10.665,10.665,0,0,0,289.945,33a10.152,10.152,0,0,0-2.415,3.381,11.466,11.466,0,0,0,0,8.82,10.152,10.152,0,0,0,2.415,3.381,10.665,10.665,0,0,0,3.612,2.163A12.865,12.865,0,0,0,297.988,51.5Zm3.276-13.02h-8.316a4.01,4.01,0,0,1,.357-1.449,3.774,3.774,0,0,1,.882-1.218,4.631,4.631,0,0,1,1.365-.861,4.731,4.731,0,0,1,1.848-.336,3.734,3.734,0,0,1,2.814,1.134,3.647,3.647,0,0,1,1.05,2.73Zm-169.47,64.272a16.054,16.054,0,0,0,4.389-.588,10.634,10.634,0,0,0,3.654-1.806,8.778,8.778,0,0,0,2.5-3.066,9.56,9.56,0,0,0,.924-4.326,7.553,7.553,0,0,0-1.008-4.158,7.806,7.806,0,0,0-2.541-2.478,13.585,13.585,0,0,0-3.3-1.428q-1.764-.5-3.3-1.008a9.545,9.545,0,0,1-2.541-1.218,2.367,2.367,0,0,1-1.008-2.058,2.392,2.392,0,0,1,.42-1.428,3.113,3.113,0,0,1,1.092-.945,5.634,5.634,0,0,1,1.428-.525,6.768,6.768,0,0,1,1.47-.168,7.752,7.752,0,0,1,2.583.483,4.666,4.666,0,0,1,2.163,1.491h0l4.494-4.914a11.237,11.237,0,0,0-4.242-2.394,16.679,16.679,0,0,0-4.872-.714,14.871,14.871,0,0,0-4.242.609,10.955,10.955,0,0,0-3.633,1.827,9.112,9.112,0,0,0-2.52,3.024,8.933,8.933,0,0,0-.945,4.2,6.97,6.97,0,0,0,1.029,3.99,8.1,8.1,0,0,0,2.583,2.436,15.089,15.089,0,0,0,3.36,1.47q1.806.546,3.36,1.092a9.484,9.484,0,0,1,2.583,1.323,2.515,2.515,0,0,1,1.029,2.121,2.409,2.409,0,0,1-.4,1.386,3.17,3.17,0,0,1-1.05.966,5.267,5.267,0,0,1-1.47.567,7.174,7.174,0,0,1-1.617.189A7.254,7.254,0,0,1,129,95.973a6.805,6.805,0,0,1-2.541-2.079h0L121.8,99.018a13.472,13.472,0,0,0,4.62,2.856A15.922,15.922,0,0,0,131.794,102.756Zm25.032-.252a20.151,20.151,0,0,0,2.226-.126,9.532,9.532,0,0,0,2.184-.5h0v-5.25a2.242,2.242,0,0,1-1.239.483,10.89,10.89,0,0,1-1.323.1,4,4,0,0,1-1.617-.273,1.91,1.91,0,0,1-.9-.777,3.089,3.089,0,0,1-.378-1.2,12.806,12.806,0,0,1-.084-1.533h0v-6.8h5.544v-5.04h-5.544V75.54h-6.3v6.048H145.36v5.04h4.032v9.7a6.533,6.533,0,0,0,.567,2.856,5.016,5.016,0,0,0,1.575,1.911,6.705,6.705,0,0,0,2.352,1.071A12.11,12.11,0,0,0,156.826,102.5Zm15.162,0a7.183,7.183,0,0,0,2.1-.294,7.444,7.444,0,0,0,1.722-.756,5.65,5.65,0,0,0,1.281-1.05,6.974,6.974,0,0,0,.861-1.176h.084V102h6.048V81.588h-6.3V91.752a14.3,14.3,0,0,1-.126,1.932,4.807,4.807,0,0,1-.525,1.659,3.006,3.006,0,0,1-1.155,1.176A3.889,3.889,0,0,1,174,96.96a2.71,2.71,0,0,1-2.835-1.806,5.763,5.763,0,0,1-.378-1.743q-.063-.945-.063-1.827h0v-10h-6.3V92.844a25.037,25.037,0,0,0,.273,3.822,7.984,7.984,0,0,0,1.092,3.066,5.56,5.56,0,0,0,2.31,2.037A8.816,8.816,0,0,0,171.988,102.5Zm25.83,0a7.1,7.1,0,0,0,2.037-.294,8.741,8.741,0,0,0,1.806-.756,7.468,7.468,0,0,0,1.428-1.029,6.961,6.961,0,0,0,.987-1.113h.084V102h5.8V70.248h-6.3V83.772h-.084a5.881,5.881,0,0,0-2.793-2.079,10.825,10.825,0,0,0-3.675-.609,8.283,8.283,0,0,0-3.906.9,9.027,9.027,0,0,0-2.919,2.415,11.269,11.269,0,0,0-1.848,3.465,12.863,12.863,0,0,0-.651,4.1,12.151,12.151,0,0,0,.714,4.242,9.738,9.738,0,0,0,2.037,3.339,9.178,9.178,0,0,0,3.171,2.184A10.521,10.521,0,0,0,197.818,102.5Zm1.3-5.544a4.816,4.816,0,0,1-3.717-1.428,5.942,5.942,0,0,1,0-7.476,5.552,5.552,0,0,1,7.434,0,5.942,5.942,0,0,1,0,7.476A4.816,4.816,0,0,1,199.12,96.96Zm19.11-18.144a3.657,3.657,0,1,0-2.583-1.071A3.52,3.52,0,0,0,218.23,78.816ZM221.38,102V81.588h-6.3V102Zm15.12.5a12.865,12.865,0,0,0,4.431-.756,10.665,10.665,0,0,0,3.612-2.163,10.151,10.151,0,0,0,2.415-3.381,11.466,11.466,0,0,0,0-8.82A10.151,10.151,0,0,0,244.543,84a10.665,10.665,0,0,0-3.612-2.163,13.363,13.363,0,0,0-8.862,0A10.665,10.665,0,0,0,228.457,84a10.151,10.151,0,0,0-2.415,3.381,11.466,11.466,0,0,0,0,8.82,10.151,10.151,0,0,0,2.415,3.381,10.665,10.665,0,0,0,3.612,2.163A12.865,12.865,0,0,0,236.5,102.5Zm0-5.544a4.816,4.816,0,0,1-3.717-1.428,5.942,5.942,0,0,1,0-7.476,5.552,5.552,0,0,1,7.434,0,5.942,5.942,0,0,1,0,7.476A4.816,4.816,0,0,1,236.5,96.96Zm21.84,5.544a17.975,17.975,0,0,0,3.318-.315,9.483,9.483,0,0,0,3.024-1.092,6.6,6.6,0,0,0,2.2-2.058,5.717,5.717,0,0,0,.861-3.255,5.45,5.45,0,0,0-.777-3.087A5.734,5.734,0,0,0,265,90.87a9.626,9.626,0,0,0-2.562-.987q-1.365-.315-2.562-.588a10.278,10.278,0,0,1-1.974-.63,1.171,1.171,0,0,1-.777-1.113,1.336,1.336,0,0,1,.756-1.3,3.437,3.437,0,0,1,1.554-.378,4.461,4.461,0,0,1,3.654,1.722h0l3.864-3.822a7.556,7.556,0,0,0-3.486-2.1,14.777,14.777,0,0,0-4.074-.588,12.617,12.617,0,0,0-3.15.4,8.359,8.359,0,0,0-2.751,1.239,6.457,6.457,0,0,0-1.932,2.142,6.224,6.224,0,0,0-.735,3.108,5.45,5.45,0,0,0,.777,3.087,5.361,5.361,0,0,0,1.974,1.785,10.585,10.585,0,0,0,2.562.945q1.365.315,2.562.588a8.507,8.507,0,0,1,1.974.672,1.279,1.279,0,0,1,.777,1.2,1.162,1.162,0,0,1-.882,1.155,5.84,5.84,0,0,1-1.974.315,5.265,5.265,0,0,1-2.5-.567,6.34,6.34,0,0,1-1.953-1.659h0l-3.822,4.242a8.082,8.082,0,0,0,3.7,2.163A16.05,16.05,0,0,0,258.34,102.5Z"/></g></g></svg>